<svg xmlns:rdf="http://www.w3.org/1999/02/22-rdf-syntax-ns#" xmlns="http://www.w3.org/2000/svg" height="32" width="32" version="1.1" xmlns:cc="http://creativecommons.org/ns#" xmlns:xlink="http://www.w3.org/1999/xlink" viewBox="0 0 32 32.000001" xmlns:dc="http://purl.org/dc/elements/1.1/">
 <defs>
  <linearGradient id="linearGradient4152" y2="1031.4" gradientUnits="userSpaceOnUse" x2="27" gradientTransform="translate(-1,1)" y1="1025.4" x1="21">
   <stop stop-color="#ce0000" stop-opacity=".32941" offset="0"/>
   <stop stop-color="#ce0000" offset=".5"/>
   <stop stop-color="#ce0000" stop-opacity=".24378" offset="1"/>
  </linearGradient>
  <linearGradient id="linearGradient4166" y2="1036.4" gradientUnits="userSpaceOnUse" x2="20" gradientTransform="translate(-1,1)" y1="1032.4" x1="16">
   <stop stop-color="#cb0000" offset="0"/>
   <stop stop-color="#ff3131" offset=".5"/>
   <stop stop-color="#cb0000" offset="1"/>
  </linearGradient>
  <linearGradient id="linearGradient4178" y2="1042.4" gradientUnits="userSpaceOnUse" x2="20" gradientTransform="translate(-1,1)" y1="1032.4" x1="10">
   <stop stop-color="#05a200" offset="0"/>
   <stop stop-color="#05a200" offset="0.3"/>
   <stop stop-color="#07fe00" offset=".5"/>
   <stop stop-color="#05a200" offset="0.7"/>
   <stop stop-color="#05a200" offset="1"/>
  </linearGradient>
  <linearGradient id="linearGradient4233" y2="1021.4" gradientUnits="userSpaceOnUse" x2="31" gradientTransform="translate(-1,1)" y1="1037.4" x1="15">
   <stop stop-color="#fff" stop-opacity=".069652" offset="0"/>
   <stop stop-color="#fff" stop-opacity=".23383" offset=".5"/>
   <stop stop-color="#fff" stop-opacity="0" offset="1"/>
  </linearGradient>
 </defs>
 <g transform="translate(0 -1020.4)">
  <path d="m18 1042.4c-7 16-24 2-10-7" stroke="#2a2a2a" stroke-width="2" fill="none"/>
  <g>
   <path d="m12 1038.4-4 4 2 2 4-4z" fill-rule="evenodd" fill="#2a2a2a"/>
   <path d="m7 1041.4v3l1 1h3v-2l-2-2z" fill-rule="evenodd" fill="#171717"/>
   <rect opacity="0.99" height="2" width="2" y="1042.4" x="8" fill="#00b2ae"/>
   <rect height="1" width="1" y="1042.4" x="8" fill="#04fff8"/>
   <rect height="1" width="1" y="1043.4" x="9" fill="#00817d"/>
  </g>
  <g fill="#c4ad04">
   <path d="m9 1041.4h2v2z" fill-rule="evenodd"/>
   <rect height="1" width="1" y="1040.4" x="11"/>
   <rect height="1" width="1" y="1039.4" x="12"/>
  </g>
  <g fill-rule="evenodd">
   <path d="m9 1033.4 1-1 10 10-1 1-6-4z" fill="#049100"/>
   <path d="m10 1032.4 1-1 3 3 14-13h3v3l-13 14 3 3-1 1z" fill="#910000"/>
   <path d="m18 1038.4h-2l15-16v2z" fill="#800000"/>
   <path d="m14 1036.4v-2l14-13h2z" fill="#800000"/>
   <path d="m14 1034.4 3-2v-2l3-1 4-5 3-2 4-1-2 6-2 1-2 2v1l-2 1-2 3-2 1-1 2h-4z" fill="url(#linearGradient4152)"/>
  </g>
  <g fill="none">
   <g>
    <path d="m9 1033.4 4 6 6 4" stroke="url(#linearGradient4178)" stroke-width="1px"/>
    <path d="m14 1038.4 16-16" stroke="url(#linearGradient4233)" stroke-width="0.6"/>
    <path d="m11 1031.4 3 3v4h4l3 3" stroke="url(#linearGradient4166)" stroke-width="1px"/>
   </g>
   <text style="word-spacing:0px;letter-spacing:0px" font-family="sans-serif" stroke-opacity=".21393" xml:space="preserve" transform="rotate(-45)" stroke="#ffffff" font-size="13.75px" y="744.83954" x="-722.21216" stroke-width=".1" line-height="125%"><tspan font-family="&apos;Liberation Mono&apos;" stroke-opacity=".21393" font-size="2.5px" stroke="#ffffff" y="744.83954" x="-722.21216" stroke-width=".1" fill="none">:(){:|:&amp;};:</tspan></text>
  </g>
 </g>
</svg>
